<?xml version="1.0" encoding="UTF-8" standalone="no"?>
<svg
   xmlns:dc="http://purl.org/dc/elements/1.1/"
   xmlns:cc="http://creativecommons.org/ns#"
   xmlns:rdf="http://www.w3.org/1999/02/22-rdf-syntax-ns#"
   xmlns:svg="http://www.w3.org/2000/svg"
   xmlns="http://www.w3.org/2000/svg"
   version="1.1"
   id="svg2"
   xml:space="preserve"
   width="1056"
   height="576"
   viewBox="0 0 1056 576"><metadata
     id="metadata8"><rdf:RDF><cc:Work
         rdf:about=""><dc:format>image/svg+xml</dc:format><dc:type
           rdf:resource="http://purl.org/dc/dcmitype/StillImage" /><dc:title></dc:title></cc:Work></rdf:RDF></metadata><defs
     id="defs6"><clipPath
       clipPathUnits="userSpaceOnUse"
       id="clipPath22"><path
         d="M 0,0 H 792 V 432 H 0 Z"
         id="path20" /></clipPath></defs><g
     id="g10"
     transform="matrix(1.3333333,0,0,1.3333333,0,1.44e-5)"><g
       id="g12"><g
         id="g14"><g
           id="g16"><g
             id="g18"
             clip-path="url(#clipPath22)"><g
               id="g24"><text
                 transform="translate(68.250596,221.7245)"
                 style="font-variant:normal;font-weight:900;font-size:200.885px;font-family:'Avenir LT Std 55 Roman';-inkscape-font-specification:AvenirLTStd-Heavy;writing-mode:lr-tb;fill:#ecbc0d;fill-opacity:1;fill-rule:nonzero;stroke:none"
                 id="text28"><tspan
                   x="0 133.58852 296.90802 419.44785 538.1709"
                   y="0"
                   id="tspan26">CORPS</tspan></text></g></g></g></g><text
         transform="translate(84.582996,325.7245)"
         style="font-variant:normal;font-weight:900;font-size:117.69px;font-family:'Avenir LT Std 55 Roman';-inkscape-font-specification:AvenirLTStd-Heavy;writing-mode:lr-tb;fill:#4f4c4d;fill-opacity:1;fill-rule:nonzero;stroke:none"
         id="text32"><tspan
           x="0 102.3903 182.53719 275.74768 358.13068 455.69568 548.90613"
           y="0"
           id="tspan30">@PURDUE</tspan></text><text
         transform="translate(75.396396,380.7442)"
         style="font-variant:normal;font-weight:500;font-size:23.2px;font-family:'Avenir LT Std 65 Medium';-inkscape-font-specification:AvenirLTStd-Medium;writing-mode:lr-tb;fill:#4f4c4d;fill-opacity:1;fill-rule:nonzero;stroke:none"
         id="text36"><tspan
           x="0 16.3328 22.7824 43.801601 49.369598 62.268799 67.8368 78.137604 86.721603 95.305603 106.9056 113.3552 127.136 134.8616 141.3112 149.8952 162.7944 175.6936 182.1432 196.31841 209.21761 216.94321 230.724 239.308 259.0744 271.9736 286.1488 292.59839 306.35599 314.5224 327.4216 337.72241 351.89761 363.49759 372.0816 384.9808 393.56479 399.13281 411.17361 424.07281 430.5224 446.85519 459.75439 472.65359 480.82001 492.00241 504.90161 511.3512 525.13202 532.8576 539.30719 551.34802 563.38879 571.11438 583.15521 594.75519 607.65442 616.2384 624.82239"
           y="0"
           id="tspan34">A Ministry of the Reformed Presbyterian Church of Lafayette</tspan></text><g
         id="g38"
         transform="scale(1,-1)"><path
           d="M 75.398,-54.188 H 714.574"
           style="fill:none;stroke:#4f4c4d;stroke-width:6.087;stroke-linecap:butt;stroke-linejoin:miter;stroke-miterlimit:4;stroke-dasharray:none;stroke-opacity:1"
           id="path40" /></g><g
         id="g42"
         transform="scale(1,-1)"><path
           d="M 75.395,-346.383 H 714.574"
           style="fill:none;stroke:#4f4c4d;stroke-width:6.087;stroke-linecap:butt;stroke-linejoin:miter;stroke-miterlimit:4;stroke-dasharray:none;stroke-opacity:1"
           id="path44" /></g></g></g></svg>
